inDegrees=yes
name=ik_lifting_orientations
DataType=double
version=3
OpenSimVersion=4.5-2024-01-10-34fd6af
endheader
time	pelvis_tilt	pelvis_list	pelvis_rotation	pelvis_tx	pelvis_ty	pelvis_tz	hip_flexion_r	hip_adduction_r	hip_rotation_r	knee_angle_r	knee_angle_r_beta	ankle_angle_r	subtalar_angle_r	mtp_angle_r	hip_flexion_l	hip_adduction_l	hip_rotation_l	knee_angle_l	knee_angle_l_beta	ankle_angle_l	subtalar_angle_l	mtp_angle_l	lumbar_extension	lumbar_bending	lumbar_rotation	arm_flex_r	arm_add_r	arm_rot_r	elbow_flex_r	pro_sup_r	wrist_flex_r	wrist_dev_r	arm_flex_l	arm_add_l	arm_rot_l	elbow_flex_l	pro_sup_l	wrist_flex_l	wrist_dev_l
0.41	-0.03685547479569831	-0.002879112956102142	-87.66909158993164	0	0.9399999999999999	0	44.29781459280117	-10.03924742812886	0	57.92463789639099	1.010975649317505	-5.005622071273759	0	0	44.29781459280117	-10.03924742812886	0	57.92463789639099	1.010975649317505	-5.005622071273759	0	0	-0.01488643757047301	0.06310826562991274	-0.01200734915869003	-0.2420576802905172	0.4849047099364606	0.6764276662527974	0.907714708982745	45.31699502322775	0	0	0	-11.59435023211152	0	74.57933005717457	45.31699502322775	0	0
0.42	-0.001093860532087863	0.02094708620150094	-87.67543024085573	0	0.9399999999999999	0	44.31420365757069	-10.03648151307966	0	57.96308233279676	1.011646631311859	-5.00513367033254	0	0	44.31420365757069	-10.03648151307966	0	57.96308233279676	1.011646631311859	-5.00513367033254	0	0	0.03505626693567922	-0.005895617076601182	5.026417918919276e-05	-0.3240881572361932	0.5033460576236344	0.6720277761146537	0.995825758815134	45.29858701286403	0	0	0	-11.63631493055013	0	74.58915214202403	45.29858701286403	0	0
0.43	0.00114237250610561	-0.003019794360692087	-87.67616827044174	0	0.9399999999999999	0	44.32873836925231	-10.03406198934293	0	57.99722365010872	1.012242509709921	-5.004708746236251	0	0	44.32873836925231	-10.03406198934293	0	57.99722365010872	1.012242509709921	-5.004708746236251	0	0	-0.004133637420934331	-0.001079983627253685	-0.0001756122542547665	-0.268754334134286	0.5111360070412111	0.6705267224691669	0.9201721239794133	45.28242135065472	0	0	0	-11.67362266900933	0	74.59786290632901	45.28242135065472	0	0
0.44	-0.001176204841404918	0.0003101483256313943	-87.6887305777102	0	0.9399999999999999	0	44.34547874755747	-10.03145633724703	0	58.03683357193154	1.012933833262187	-5.004262103956264	0	0	44.34547874755747	-10.03145633724703	0	58.03683357193154	1.012933833262187	-5.004262103956264	0	0	-0.01146294408139993	0.0002794095539907269	-0.005720315130931456	-0.4314595508079246	0.4670085518948773	0.6944299010588101	1.28948481630394	45.26469595072917	0	0	0	-11.71726680124627	0	74.60789558661227	45.26469595072917	0	0
0.45	0.003804798926227058	0.005267054557093181	-87.67144105135006	0	0.9399999999999999	0	44.37565777948399	-10.02701567738074	0	58.10859900887776	1.014186376426031	-5.003518175345676	0	0	44.37565777948399	-10.02701567738074	0	58.10859900887776	1.014186376426031	-5.003518175345676	0	0	0.0002728433764471688	0.0009943857712222432	5.118758065554576e-05	-0.2703870315316284	0.5066551830839995	0.6659363557906469	0.9211982081453747	45.23399514739763	0	0	0	-11.79679623955286	0	74.62598224653209	45.23399514739763	0	0
0.46	-0.002644134490937979	-0.01337225090922413	-87.68358103970587	0	0.9399999999999999	0	44.38982425019472	-10.02511411696957	0	58.14255921972055	1.014779093919909	-5.003210125656251	0	0	44.38982425019472	-10.02511411696957	0	58.14255921972055	1.014779093919909	-5.003210125656251	0	0	-0.006591365548864012	0.004076056470402392	0.004809527671021582	-0.2725716738700525	0.5219321822221906	0.680146263003608	0.9081395481993315	45.22051787161711	0	0	0	-11.83490102314635	0	74.63447243020676	45.22051787161711	0	0
0.47	0.002379124850779435	-0.002411119774324564	-87.67951310640584	0	0.9399999999999999	0	44.40278268919848	-10.02344894291222	0	58.17374804375669	1.015323441589165	-5.002944686252155	0	0	44.40278268919848	-10.02344894291222	0	58.17374804375669	1.015323441589165	-5.002944686252155	0	0	-0.003462770684314593	-0.002201806451965163	0.0001512011310220115	-0.2679360953627699	0.5097832210216673	0.6731642424533426	0.9226961622568814	45.20857519542265	0	0	0	-11.87009492920605	0	74.64223863960756	45.20857519542265	0	0
0.48	0.007726566768250567	-0.01795442496891205	-87.68749420397185	0	0.9399999999999999	0	44.41664656665409	-10.02176967006725	0	58.20728886873734	1.015908839418912	-5.00268282937657	0	0	44.41664656665409	-10.02176967006725	0	58.20728886873734	1.015908839418912	-5.00268282937657	0	0	-0.01419371191120919	-0.005594148025232456	0.007129209596069919	-0.2724275750142328	0.5059133552720634	0.685156432491314	0.9048560206541634	45.19633550119131	0	0	0	-11.90823917128442	0	74.65054751901917	45.19633550119131	0	0
0.5	0.00400643012816301	-0.009462409253971484	-87.67802263234223	0	0.9399999999999999	0	44.43218645094041	-10.01993858776932	0	58.24499153232352	1.016566875035263	-5.002400431542706	0	0	44.43218645094041	-10.01993858776932	0	58.24499153232352	1.016566875035263	-5.002400431542706	0	0	0.01321245396192935	0.007456711248207014	-0.001963729887468075	-0.4748113914396185	0.4585942668003841	0.6714316883161667	1.284835192327361	45.18288442495307	0	0	0	-11.95123227436203	0	74.65986087146642	45.18288442495307	0	0
0.51	-0.002548031846079514	-0.001063794743747621	-87.67775630785711	0	0.9399999999999999	0	44.44395995381213	-10.01864839513516	0	58.27376840900578	1.017069126281809	-5.002206746308357	0	0	44.44395995381213	-10.01864839513516	0	58.27376840900578	1.017069126281809	-5.002206746308357	0	0	0.02349652634052738	0.008722163230117009	0.00122695410277836	-0.4786146111238673	0.4633081635134347	0.673443865351761	1.289606511720387	45.17321713932213	0	0	0	-11.98432938172947	0	74.66691698292449	45.17321713932213	0	0
0.52	4.926399048460209e-05	-0.0002867828286794041	-87.67645716133754	0	0.9399999999999999	0	44.4535186440749	-10.0176339747329	0	58.29723214317796	1.017478645697926	-5.002056228040781	0	0	44.4535186440749	-10.0176339747329	0	58.29723214317796	1.017478645697926	-5.002056228040781	0	0	-0.00130973397125085	-0.0005308564611733682	-0.0007625195741562842	-0.2686679808315273	0.5109528733832992	0.6700445682063788	0.9199528457200626	45.1655504120323	0	0	0	-12.0114040785084	0	74.67264571792934	45.1655504120323	0	0
